STARTFONT 2.1
FONT --Alto Mono-Normal-R-Normal--9-90-96-96-M-70--
SIZE 9 96 96
FONTBOUNDINGBOX 7 12 0 -2
STARTPROPERTIES 31
FAMILY_NAME "Alto Mono"
FOUNDRY "Recreated by Damien Guard"
COPYRIGHT "                                                            "
CODEPAGE "MS Windows 1252 Western (ANSI)"
ENC_MODE 2
ENC_ID 1
VENDOR_URL "http://damieng.com"
CREATION_YEAR 2001
WEIGHT_NAME "Regular"
SLANT "R"
SETWIDTH_NAME "Normal"
ADD_STYLE_NAME "Regular"
SPACING "M"
WEIGHT 400
FACE_NAME "Alto Mono"
RELATIVE_WEIGHT 40
HI_VERSION 1
MENU_NAME "Alto Mono"
FONT_NAME "AltoMono"
FONTNAME_REGISTRY "-"
PITCH_AND_FAMILY 48
BREAK_CHAR 32
PIXEL_SIZE 12
POINT_SIZE 90
FONT_ASCENT 8
FONT_DESCENT 2
RESOLUTION_X 96
RESOLUTION_Y 96
AVERAGE_WIDTH 70
X_HEIGHT 6
CAP_HEIGHT 8
ENDPROPERTIES
CHARS 218
STARTCHAR space.uni0020
ENCODING 32
SWIDTH 583 0
DWIDTH 7 0
BBX 0 0 0 0
BITMAP
ENDCHAR
STARTCHAR exclam.uni0021
ENCODING 33
SWIDTH 583 0
DWIDTH 7 0
BBX 1 8 3 0
BITMAP
8000
8000
8000
8000
8000
0000
8000
8000
ENDCHAR
STARTCHAR quotedbl.uni0022
ENCODING 34
SWIDTH 583 0
DWIDTH 7 0
BBX 5 4 1 5
BITMAP
D800
4800
4800
9000
ENDCHAR
STARTCHAR numbersign.uni0023
ENCODING 35
SWIDTH 583 0
DWIDTH 7 0
BBX 7 8 0 0
BITMAP
1400
1400
7E00
2800
2800
FC00
5000
5000
ENDCHAR
STARTCHAR dollar.uni0024
ENCODING 36
SWIDTH 583 0
DWIDTH 7 0
BBX 5 9 1 -1
BITMAP
2000
7800
A000
A000
7000
2800
2800
F000
2000
ENDCHAR
STARTCHAR percent.uni0025
ENCODING 37
SWIDTH 583 0
DWIDTH 7 0
BBX 5 7 1 0
BITMAP
C000
C800
1000
2000
4000
9800
1800
ENDCHAR
STARTCHAR ampersand.uni0026
ENCODING 38
SWIDTH 583 0
DWIDTH 7 0
BBX 5 8 1 0
BITMAP
6000
8000
9000
7800
9000
9000
9000
6800
ENDCHAR
STARTCHAR quotesingle.uni0027
ENCODING 39
SWIDTH 583 0
DWIDTH 7 0
BBX 2 4 2 5
BITMAP
C000
4000
4000
8000
ENDCHAR
STARTCHAR parenleft.uni0028
ENCODING 40
SWIDTH 583 0
DWIDTH 7 0
BBX 3 11 2 -2
BITMAP
2000
4000
4000
8000
8000
8000
8000
8000
4000
4000
2000
ENDCHAR
STARTCHAR parenright.uni0029
ENCODING 41
SWIDTH 583 0
DWIDTH 7 0
BBX 3 11 2 -2
BITMAP
8000
4000
4000
2000
2000
2000
2000
2000
4000
4000
8000
ENDCHAR
STARTCHAR asterisk.uni002A
ENCODING 42
SWIDTH 583 0
DWIDTH 7 0
BBX 5 6 1 1
BITMAP
2000
2000
F800
2000
5000
D800
ENDCHAR
STARTCHAR plus.uni002B
ENCODING 43
SWIDTH 583 0
DWIDTH 7 0
BBX 5 5 1 1
BITMAP
2000
2000
F800
2000
2000
ENDCHAR
STARTCHAR comma.uni002C
ENCODING 44
SWIDTH 583 0
DWIDTH 7 0
BBX 2 4 2 -2
BITMAP
C000
4000
4000
8000
ENDCHAR
STARTCHAR hyphen.uni002D
ENCODING 45
SWIDTH 583 0
DWIDTH 7 0
BBX 5 1 1 3
BITMAP
F800
ENDCHAR
STARTCHAR period.uni002E
ENCODING 46
SWIDTH 583 0
DWIDTH 7 0
BBX 1 2 3 0
BITMAP
8000
8000
ENDCHAR
STARTCHAR slash.uni002F
ENCODING 47
SWIDTH 583 0
DWIDTH 7 0
BBX 5 10 1 -1
BITMAP
0800
0800
1000
1000
2000
2000
4000
4000
8000
8000
ENDCHAR
STARTCHAR zero.uni0030
ENCODING 48
SWIDTH 583 0
DWIDTH 7 0
BBX 5 8 1 0
BITMAP
7000
8800
9800
A800
A800
C800
8800
7000
ENDCHAR
STARTCHAR one.uni0031
ENCODING 49
SWIDTH 583 0
DWIDTH 7 0
BBX 5 8 1 0
BITMAP
2000
6000
A000
2000
2000
2000
2000
F800
ENDCHAR
STARTCHAR two.uni0032
ENCODING 50
SWIDTH 583 0
DWIDTH 7 0
BBX 5 8 1 0
BITMAP
7000
8800
8800
1000
2000
4000
8000
F800
ENDCHAR
STARTCHAR three.uni0033
ENCODING 51
SWIDTH 583 0
DWIDTH 7 0
BBX 5 8 1 0
BITMAP
7000
8800
0800
7000
0800
8800
8800
7000
ENDCHAR
STARTCHAR four.uni0034
ENCODING 52
SWIDTH 583 0
DWIDTH 7 0
BBX 5 8 1 0
BITMAP
3000
5000
5000
9000
9000
F800
1000
1000
ENDCHAR
STARTCHAR five.uni0035
ENCODING 53
SWIDTH 583 0
DWIDTH 7 0
BBX 5 8 1 0
BITMAP
F800
8000
8000
F000
8800
0800
8800
7000
ENDCHAR
STARTCHAR six.uni0036
ENCODING 54
SWIDTH 583 0
DWIDTH 7 0
BBX 5 8 1 0
BITMAP
7000
8800
8000
F000
8800
8800
8800
7000
ENDCHAR
STARTCHAR seven.uni0037
ENCODING 55
SWIDTH 583 0
DWIDTH 7 0
BBX 5 8 1 0
BITMAP
F800
0800
1000
1000
2000
2000
4000
4000
ENDCHAR
STARTCHAR eight.uni0038
ENCODING 56
SWIDTH 583 0
DWIDTH 7 0
BBX 5 8 1 0
BITMAP
7000
8800
8800
7000
8800
8800
8800
7000
ENDCHAR
STARTCHAR nine.uni0039
ENCODING 57
SWIDTH 583 0
DWIDTH 7 0
BBX 5 8 1 0
BITMAP
7000
8800
8800
8800
7800
0800
8800
7000
ENDCHAR
STARTCHAR colon.uni003A
ENCODING 58
SWIDTH 583 0
DWIDTH 7 0
BBX 1 6 3 0
BITMAP
8000
8000
0000
0000
8000
8000
ENDCHAR
STARTCHAR semicolon.uni003B
ENCODING 59
SWIDTH 583 0
DWIDTH 7 0
BBX 2 8 2 -2
BITMAP
4000
4000
0000
0000
C000
4000
4000
8000
ENDCHAR
STARTCHAR less.uni003C
ENCODING 60
SWIDTH 583 0
DWIDTH 7 0
BBX 4 8 1 0
BITMAP
1000
2000
4000
8000
8000
4000
2000
1000
ENDCHAR
STARTCHAR equal.uni003D
ENCODING 61
SWIDTH 583 0
DWIDTH 7 0
BBX 5 3 1 2
BITMAP
F800
0000
F800
ENDCHAR
STARTCHAR greater.uni003E
ENCODING 62
SWIDTH 583 0
DWIDTH 7 0
BBX 4 8 1 0
BITMAP
8000
4000
2000
1000
1000
2000
4000
8000
ENDCHAR
STARTCHAR question.uni003F
ENCODING 63
SWIDTH 583 0
DWIDTH 7 0
BBX 5 8 1 0
BITMAP
7000
8800
0800
1000
2000
0000
2000
2000
ENDCHAR
STARTCHAR at.uni0040
ENCODING 64
SWIDTH 583 0
DWIDTH 7 0
BBX 7 9 0 -1
BITMAP
3800
4400
9A00
AA00
AA00
AA00
9400
4000
3C00
ENDCHAR
STARTCHAR A.uni0041
ENCODING 65
SWIDTH 583 0
DWIDTH 7 0
BBX 5 8 1 0
BITMAP
2000
5000
5000
5000
8800
F800
8800
8800
ENDCHAR
STARTCHAR B.uni0042
ENCODING 66
SWIDTH 583 0
DWIDTH 7 0
BBX 5 8 1 0
BITMAP
F000
8800
8800
F000
8800
8800
8800
F000
ENDCHAR
STARTCHAR C.uni0043
ENCODING 67
SWIDTH 583 0
DWIDTH 7 0
BBX 5 8 1 0
BITMAP
7000
8800
8800
8000
8000
8800
8800
7000
ENDCHAR
STARTCHAR D.uni0044
ENCODING 68
SWIDTH 583 0
DWIDTH 7 0
BBX 5 8 1 0
BITMAP
E000
9000
8800
8800
8800
8800
9000
E000
ENDCHAR
STARTCHAR E.uni0045
ENCODING 69
SWIDTH 583 0
DWIDTH 7 0
BBX 5 8 1 0
BITMAP
F800
8000
8000
F000
8000
8000
8000
F800
ENDCHAR
STARTCHAR F.uni0046
ENCODING 70
SWIDTH 583 0
DWIDTH 7 0
BBX 5 8 1 0
BITMAP
F800
8000
8000
F000
8000
8000
8000
8000
ENDCHAR
STARTCHAR G.uni0047
ENCODING 71
SWIDTH 583 0
DWIDTH 7 0
BBX 5 8 1 0
BITMAP
7000
8800
8800
8000
B800
8800
8800
7000
ENDCHAR
STARTCHAR H.uni0048
ENCODING 72
SWIDTH 583 0
DWIDTH 7 0
BBX 5 8 1 0
BITMAP
8800
8800
8800
F800
8800
8800
8800
8800
ENDCHAR
STARTCHAR I.uni0049
ENCODING 73
SWIDTH 583 0
DWIDTH 7 0
BBX 5 8 1 0
BITMAP
F800
2000
2000
2000
2000
2000
2000
F800
ENDCHAR
STARTCHAR J.uni004A
ENCODING 74
SWIDTH 583 0
DWIDTH 7 0
BBX 5 8 1 0
BITMAP
0800
0800
0800
0800
0800
8800
8800
7000
ENDCHAR
STARTCHAR K.uni004B
ENCODING 75
SWIDTH 583 0
DWIDTH 7 0
BBX 5 8 1 0
BITMAP
8800
9000
A000
E000
9000
9000
8800
8800
ENDCHAR
STARTCHAR L.uni004C
ENCODING 76
SWIDTH 583 0
DWIDTH 7 0
BBX 5 8 1 0
BITMAP
8000
8000
8000
8000
8000
8000
8000
F800
ENDCHAR
STARTCHAR M.uni004D
ENCODING 77
SWIDTH 583 0
DWIDTH 7 0
BBX 5 8 1 0
BITMAP
8800
D800
A800
A800
8800
8800
8800
8800
ENDCHAR
STARTCHAR N.uni004E
ENCODING 78
SWIDTH 583 0
DWIDTH 7 0
BBX 5 8 1 0
BITMAP
8800
C800
C800
A800
A800
9800
9800
8800
ENDCHAR
STARTCHAR O.uni004F
ENCODING 79
SWIDTH 583 0
DWIDTH 7 0
BBX 5 8 1 0
BITMAP
7000
8800
8800
8800
8800
8800
8800
7000
ENDCHAR
STARTCHAR P.uni0050
ENCODING 80
SWIDTH 583 0
DWIDTH 7 0
BBX 5 8 1 0
BITMAP
F000
8800
8800
8800
F000
8000
8000
8000
ENDCHAR
STARTCHAR Q.uni0051
ENCODING 81
SWIDTH 583 0
DWIDTH 7 0
BBX 5 9 1 -1
BITMAP
7000
8800
8800
8800
8800
A800
9000
6800
0800
ENDCHAR
STARTCHAR R.uni0052
ENCODING 82
SWIDTH 583 0
DWIDTH 7 0
BBX 5 8 1 0
BITMAP
F000
8800
8800
F000
A000
9000
8800
8800
ENDCHAR
STARTCHAR S.uni0053
ENCODING 83
SWIDTH 583 0
DWIDTH 7 0
BBX 5 8 1 0
BITMAP
7000
8800
8800
6000
1000
8800
8800
7000
ENDCHAR
STARTCHAR T.uni0054
ENCODING 84
SWIDTH 583 0
DWIDTH 7 0
BBX 5 8 1 0
BITMAP
F800
2000
2000
2000
2000
2000
2000
2000
ENDCHAR
STARTCHAR U.uni0055
ENCODING 85
SWIDTH 583 0
DWIDTH 7 0
BBX 5 8 1 0
BITMAP
8800
8800
8800
8800
8800
8800
8800
7000
ENDCHAR
STARTCHAR V.uni0056
ENCODING 86
SWIDTH 583 0
DWIDTH 7 0
BBX 5 8 1 0
BITMAP
8800
8800
8800
5000
5000
5000
2000
2000
ENDCHAR
STARTCHAR W.uni0057
ENCODING 87
SWIDTH 583 0
DWIDTH 7 0
BBX 5 8 1 0
BITMAP
8800
8800
8800
8800
A800
A800
D800
8800
ENDCHAR
STARTCHAR X.uni0058
ENCODING 88
SWIDTH 583 0
DWIDTH 7 0
BBX 5 8 1 0
BITMAP
8800
8800
5000
2000
5000
8800
8800
8800
ENDCHAR
STARTCHAR Y.uni0059
ENCODING 89
SWIDTH 583 0
DWIDTH 7 0
BBX 5 8 1 0
BITMAP
8800
8800
5000
5000
2000
2000
2000
2000
ENDCHAR
STARTCHAR Z.uni005A
ENCODING 90
SWIDTH 583 0
DWIDTH 7 0
BBX 5 8 1 0
BITMAP
F800
0800
1000
2000
4000
8000
8000
F800
ENDCHAR
STARTCHAR bracketleft.uni005B
ENCODING 91
SWIDTH 583 0
DWIDTH 7 0
BBX 3 10 2 -1
BITMAP
E000
8000
8000
8000
8000
8000
8000
8000
8000
E000
ENDCHAR
STARTCHAR backslash.uni005C
ENCODING 92
SWIDTH 583 0
DWIDTH 7 0
BBX 5 10 1 -1
BITMAP
8000
8000
4000
4000
2000
2000
1000
1000
0800
0800
ENDCHAR
STARTCHAR bracketright.uni005D
ENCODING 93
SWIDTH 583 0
DWIDTH 7 0
BBX 3 10 2 -1
BITMAP
E000
2000
2000
2000
2000
2000
2000
2000
2000
E000
ENDCHAR
STARTCHAR asciicircum.uni005E
ENCODING 94
SWIDTH 583 0
DWIDTH 7 0
BBX 5 6 1 0
BITMAP
2000
7000
A800
2000
2000
2000
ENDCHAR
STARTCHAR underscore.uni005F
ENCODING 95
SWIDTH 583 0
DWIDTH 7 0
BBX 7 1 0 -2
BITMAP
FE00
ENDCHAR
STARTCHAR grave.uni0060
ENCODING 96
SWIDTH 583 0
DWIDTH 7 0
BBX 2 3 2 7
BITMAP
8000
8000
4000
ENDCHAR
STARTCHAR a.uni0061
ENCODING 97
SWIDTH 583 0
DWIDTH 7 0
BBX 5 6 1 0
BITMAP
7000
0800
7800
8800
8800
7800
ENDCHAR
STARTCHAR b.uni0062
ENCODING 98
SWIDTH 583 0
DWIDTH 7 0
BBX 5 8 1 0
BITMAP
8000
8000
B000
C800
8800
8800
C800
B000
ENDCHAR
STARTCHAR c.uni0063
ENCODING 99
SWIDTH 583 0
DWIDTH 7 0
BBX 5 6 1 0
BITMAP
7000
8800
8000
8000
8800
7000
ENDCHAR
STARTCHAR d.uni0064
ENCODING 100
SWIDTH 583 0
DWIDTH 7 0
BBX 5 8 1 0
BITMAP
0800
0800
6800
9800
8800
8800
9800
6800
ENDCHAR
STARTCHAR e.uni0065
ENCODING 101
SWIDTH 583 0
DWIDTH 7 0
BBX 5 6 1 0
BITMAP
7000
8800
F800
8000
8800
7000
ENDCHAR
STARTCHAR f.uni0066
ENCODING 102
SWIDTH 583 0
DWIDTH 7 0
BBX 5 8 1 0
BITMAP
3800
4000
F000
4000
4000
4000
4000
4000
ENDCHAR
STARTCHAR g.uni0067
ENCODING 103
SWIDTH 583 0
DWIDTH 7 0
BBX 5 8 1 -2
BITMAP
6800
9800
8800
8800
9800
6800
0800
7000
ENDCHAR
STARTCHAR h.uni0068
ENCODING 104
SWIDTH 583 0
DWIDTH 7 0
BBX 5 8 1 0
BITMAP
8000
8000
B000
C800
8800
8800
8800
8800
ENDCHAR
STARTCHAR i.uni0069
ENCODING 105
SWIDTH 583 0
DWIDTH 7 0
BBX 3 8 2 0
BITMAP
2000
0000
E000
2000
2000
2000
2000
2000
ENDCHAR
STARTCHAR j.uni006A
ENCODING 106
SWIDTH 583 0
DWIDTH 7 0
BBX 5 10 1 -2
BITMAP
0800
0000
3800
0800
0800
0800
0800
8800
8800
7000
ENDCHAR
STARTCHAR k.uni006B
ENCODING 107
SWIDTH 583 0
DWIDTH 7 0
BBX 5 8 1 0
BITMAP
8000
8000
9000
A000
C000
A000
9000
8800
ENDCHAR
STARTCHAR l.uni006C
ENCODING 108
SWIDTH 583 0
DWIDTH 7 0
BBX 3 8 2 0
BITMAP
E000
2000
2000
2000
2000
2000
2000
2000
ENDCHAR
STARTCHAR m.uni006D
ENCODING 109
SWIDTH 583 0
DWIDTH 7 0
BBX 5 6 1 0
BITMAP
D800
A800
A800
8800
8800
8800
ENDCHAR
STARTCHAR n.uni006E
ENCODING 110
SWIDTH 583 0
DWIDTH 7 0
BBX 5 6 1 0
BITMAP
B000
C800
8800
8800
8800
8800
ENDCHAR
STARTCHAR o.uni006F
ENCODING 111
SWIDTH 583 0
DWIDTH 7 0
BBX 5 6 1 0
BITMAP
7000
8800
8800
8800
8800
7000
ENDCHAR
STARTCHAR p.uni0070
ENCODING 112
SWIDTH 583 0
DWIDTH 7 0
BBX 5 8 1 -2
BITMAP
B000
C800
8800
8800
C800
B000
8000
8000
ENDCHAR
STARTCHAR q.uni0071
ENCODING 113
SWIDTH 583 0
DWIDTH 7 0
BBX 5 8 1 -2
BITMAP
6800
9800
8800
8800
9800
6800
0800
0800
ENDCHAR
STARTCHAR r.uni0072
ENCODING 114
SWIDTH 583 0
DWIDTH 7 0
BBX 5 6 1 0
BITMAP
B000
C800
8000
8000
8000
8000
ENDCHAR
STARTCHAR s.uni0073
ENCODING 115
SWIDTH 583 0
DWIDTH 7 0
BBX 5 6 1 0
BITMAP
7000
8800
6000
1000
8800
7000
ENDCHAR
STARTCHAR t.uni0074
ENCODING 116
SWIDTH 583 0
DWIDTH 7 0
BBX 5 8 1 0
BITMAP
4000
4000
F000
4000
4000
4000
4800
3000
ENDCHAR
STARTCHAR u.uni0075
ENCODING 117
SWIDTH 583 0
DWIDTH 7 0
BBX 5 6 1 0
BITMAP
8800
8800
8800
8800
9800
6800
ENDCHAR
STARTCHAR v.uni0076
ENCODING 118
SWIDTH 583 0
DWIDTH 7 0
BBX 5 6 1 0
BITMAP
8800
8800
5000
5000
2000
2000
ENDCHAR
STARTCHAR w.uni0077
ENCODING 119
SWIDTH 583 0
DWIDTH 7 0
BBX 5 6 1 0
BITMAP
8800
8800
A800
A800
5000
5000
ENDCHAR
STARTCHAR x.uni0078
ENCODING 120
SWIDTH 583 0
DWIDTH 7 0
BBX 5 6 1 0
BITMAP
8800
5000
2000
2000
5000
8800
ENDCHAR
STARTCHAR y.uni0079
ENCODING 121
SWIDTH 583 0
DWIDTH 7 0
BBX 5 8 1 -2
BITMAP
8800
8800
8800
5000
5000
2000
2000
C000
ENDCHAR
STARTCHAR z.uni007A
ENCODING 122
SWIDTH 583 0
DWIDTH 7 0
BBX 5 6 1 0
BITMAP
F800
1000
2000
4000
8000
F800
ENDCHAR
STARTCHAR braceleft.uni007B
ENCODING 123
SWIDTH 583 0
DWIDTH 7 0
BBX 5 10 1 -1
BITMAP
1800
2000
2000
2000
C000
2000
2000
2000
2000
1800
ENDCHAR
STARTCHAR bar.uni007C
ENCODING 124
SWIDTH 583 0
DWIDTH 7 0
BBX 1 10 3 -1
BITMAP
8000
8000
8000
8000
8000
8000
8000
8000
8000
8000
ENDCHAR
STARTCHAR braceright.uni007D
ENCODING 125
SWIDTH 583 0
DWIDTH 7 0
BBX 5 10 1 -1
BITMAP
C000
2000
2000
2000
1800
2000
2000
2000
2000
C000
ENDCHAR
STARTCHAR asciitilde.uni007E
ENCODING 126
SWIDTH 583 0
DWIDTH 7 0
BBX 5 3 1 3
BITMAP
4800
A800
9000
ENDCHAR
STARTCHAR Euro.uni20AC
ENCODING 8364
SWIDTH 583 0
DWIDTH 7 0
BBX 6 8 0 0
BITMAP
1800
2400
F000
4000
F000
4000
2400
1800
ENDCHAR
STARTCHAR quotesinglbase.uni201A
ENCODING 8218
SWIDTH 583 0
DWIDTH 7 0
BBX 2 3 2 -1
BITMAP
4000
4000
8000
ENDCHAR
STARTCHAR florin.uni0192
ENCODING 402
SWIDTH 583 0
DWIDTH 7 0
BBX 6 10 0 -1
BITMAP
0800
1400
1000
1000
7C00
1000
2000
2000
A000
4000
ENDCHAR
STARTCHAR quotedblbase.uni201E
ENCODING 8222
SWIDTH 583 0
DWIDTH 7 0
BBX 5 3 0 -1
BITMAP
D800
4800
9000
ENDCHAR
STARTCHAR ellipsis.uni2026
ENCODING 8230
SWIDTH 583 0
DWIDTH 7 0
BBX 5 2 1 0
BITMAP
A800
A800
ENDCHAR
STARTCHAR dagger.uni2020
ENCODING 8224
SWIDTH 583 0
DWIDTH 7 0
BBX 5 9 1 0
BITMAP
2000
2000
F800
2000
2000
2000
2000
2000
2000
ENDCHAR
STARTCHAR daggerdbl.uni2021
ENCODING 8225
SWIDTH 583 0
DWIDTH 7 0
BBX 5 8 1 0
BITMAP
2000
2000
F800
2000
2000
F800
2000
2000
ENDCHAR
STARTCHAR circumflex.uni02C6
ENCODING 710
SWIDTH 583 0
DWIDTH 7 0
BBX 5 3 1 7
BITMAP
2000
5000
8800
ENDCHAR
STARTCHAR perthousand.uni2030
ENCODING 8240
SWIDTH 583 0
DWIDTH 7 0
BBX 5 7 1 0
BITMAP
C000
C800
1000
2000
4000
A800
2800
ENDCHAR
STARTCHAR Scaron.uni0160
ENCODING 352
SWIDTH 583 0
DWIDTH 7 0
BBX 5 10 1 0
BITMAP
5000
2000
7000
8800
8800
6000
1000
8800
8800
7000
ENDCHAR
STARTCHAR guilsinglleft.uni2039
ENCODING 8249
SWIDTH 583 0
DWIDTH 7 0
BBX 4 7 1 0
BITMAP
1000
2000
4000
8000
4000
2000
1000
ENDCHAR
STARTCHAR OE.uni0152
ENCODING 338
SWIDTH 583 0
DWIDTH 7 0
BBX 6 8 0 0
BITMAP
5C00
B000
9000
9C00
9000
9000
B000
5C00
ENDCHAR
STARTCHAR Zcaron.uni017D
ENCODING 381
SWIDTH 583 0
DWIDTH 7 0
BBX 6 10 0 0
BITMAP
2800
1000
0000
FC00
0800
1000
2000
4000
8000
FC00
ENDCHAR
STARTCHAR quoteleft.uni2018
ENCODING 8216
SWIDTH 583 0
DWIDTH 7 0
BBX 2 3 2 7
BITMAP
4000
8000
C000
ENDCHAR
STARTCHAR quoteright.uni2019
ENCODING 8217
SWIDTH 583 0
DWIDTH 7 0
BBX 2 3 2 7
BITMAP
C000
4000
8000
ENDCHAR
STARTCHAR quotedblleft.uni201C
ENCODING 8220
SWIDTH 583 0
DWIDTH 7 0
BBX 5 3 1 7
BITMAP
4800
9000
D800
ENDCHAR
STARTCHAR quotedblright.uni201D
ENCODING 8221
SWIDTH 583 0
DWIDTH 7 0
BBX 5 3 1 7
BITMAP
D800
4800
9000
ENDCHAR
STARTCHAR bullet.uni2022
ENCODING 8226
SWIDTH 583 0
DWIDTH 7 0
BBX 5 5 1 3
BITMAP
7000
F800
F800
F800
7000
ENDCHAR
STARTCHAR endash.uni2013
ENCODING 8211
SWIDTH 583 0
DWIDTH 7 0
BBX 5 1 1 5
BITMAP
F800
ENDCHAR
STARTCHAR emdash.uni2014
ENCODING 8212
SWIDTH 583 0
DWIDTH 7 0
BBX 7 1 0 5
BITMAP
FE00
ENDCHAR
STARTCHAR tilde.uni02DC
ENCODING 732
SWIDTH 583 0
DWIDTH 7 0
BBX 5 3 1 7
BITMAP
4000
A800
1000
ENDCHAR
STARTCHAR trademark.uni2122
ENCODING 8482
SWIDTH 583 0
DWIDTH 7 0
BBX 6 4 0 6
BITMAP
F400
5C00
5400
5400
ENDCHAR
STARTCHAR scaron.uni0161
ENCODING 353
SWIDTH 583 0
DWIDTH 7 0
BBX 5 9 1 0
BITMAP
5000
2000
0000
7000
8800
6000
1000
8800
7000
ENDCHAR
STARTCHAR guilsinglright.uni203A
ENCODING 8250
SWIDTH 583 0
DWIDTH 7 0
BBX 4 7 1 0
BITMAP
8000
4000
2000
1000
2000
4000
8000
ENDCHAR
STARTCHAR oe.uni0153
ENCODING 339
SWIDTH 583 0
DWIDTH 7 0
BBX 5 6 1 0
BITMAP
5000
A800
B800
A000
A800
5000
ENDCHAR
STARTCHAR zcaron.uni017E
ENCODING 382
SWIDTH 583 0
DWIDTH 7 0
BBX 5 9 1 0
BITMAP
5000
2000
0000
F800
1000
2000
4000
8000
F800
ENDCHAR
STARTCHAR Ydieresis.uni0178
ENCODING 376
SWIDTH 583 0
DWIDTH 7 0
BBX 5 10 1 0
BITMAP
5000
0000
8800
8800
5000
5000
2000
2000
2000
2000
ENDCHAR
STARTCHAR uni00A0.uni00A0
ENCODING 160
SWIDTH 583 0
DWIDTH 7 0
BBX 0 0 0 0
BITMAP
ENDCHAR
STARTCHAR exclamdown.uni00A1
ENCODING 161
SWIDTH 583 0
DWIDTH 7 0
BBX 1 8 3 0
BITMAP
8000
8000
0000
8000
8000
8000
8000
8000
ENDCHAR
STARTCHAR cent.uni00A2
ENCODING 162
SWIDTH 583 0
DWIDTH 7 0
BBX 5 8 1 -1
BITMAP
2000
7000
A800
A000
A000
A800
7000
2000
ENDCHAR
STARTCHAR sterling.uni00A3
ENCODING 163
SWIDTH 583 0
DWIDTH 7 0
BBX 5 8 1 0
BITMAP
3000
4800
4000
F000
4000
4000
4000
F800
ENDCHAR
STARTCHAR currency.uni00A4
ENCODING 164
SWIDTH 583 0
DWIDTH 7 0
BBX 6 6 0 1
BITMAP
B400
4800
8400
8400
4800
B400
ENDCHAR
STARTCHAR yen.uni00A5
ENCODING 165
SWIDTH 583 0
DWIDTH 7 0
BBX 5 8 1 0
BITMAP
8800
8800
5000
5000
2000
7000
2000
2000
ENDCHAR
STARTCHAR brokenbar.uni00A6
ENCODING 166
SWIDTH 583 0
DWIDTH 7 0
BBX 1 9 3 0
BITMAP
8000
8000
8000
8000
0000
8000
8000
8000
8000
ENDCHAR
STARTCHAR section.uni00A7
ENCODING 167
SWIDTH 583 0
DWIDTH 7 0
BBX 5 8 1 0
BITMAP
7000
8800
6000
9000
4800
3000
8800
7000
ENDCHAR
STARTCHAR dieresis.uni00A8
ENCODING 168
SWIDTH 583 0
DWIDTH 7 0
BBX 3 1 2 8
BITMAP
A000
ENDCHAR
STARTCHAR copyright.uni00A9
ENCODING 169
SWIDTH 583 0
DWIDTH 7 0
BBX 7 9 0 0
BITMAP
3800
4400
9200
AA00
A200
AA00
9200
4400
3800
ENDCHAR
STARTCHAR ordfeminine.uni00AA
ENCODING 170
SWIDTH 583 0
DWIDTH 7 0
BBX 5 7 1 3
BITMAP
7000
0800
7800
8800
7800
0000
F800
ENDCHAR
STARTCHAR guillemotleft.uni00AB
ENCODING 171
SWIDTH 583 0
DWIDTH 7 0
BBX 6 5 0 1
BITMAP
2400
4800
9000
4800
2400
ENDCHAR
STARTCHAR logicalnot.uni00AC
ENCODING 172
SWIDTH 583 0
DWIDTH 7 0
BBX 5 2 1 4
BITMAP
F800
0800
ENDCHAR
STARTCHAR uni00AD.uni00AD
ENCODING 173
SWIDTH 583 0
DWIDTH 7 0
BBX 5 1 1 4
BITMAP
F800
ENDCHAR
STARTCHAR registered.uni00AE
ENCODING 174
SWIDTH 583 0
DWIDTH 7 0
BBX 7 9 0 0
BITMAP
3800
4400
B200
AA00
B200
AA00
AA00
4400
3800
ENDCHAR
STARTCHAR macron.uni00AF
ENCODING 175
SWIDTH 583 0
DWIDTH 7 0
BBX 5 1 1 8
BITMAP
F800
ENDCHAR
STARTCHAR degree.uni00B0
ENCODING 176
SWIDTH 583 0
DWIDTH 7 0
BBX 4 4 1 6
BITMAP
6000
9000
9000
6000
ENDCHAR
STARTCHAR plusminus.uni00B1
ENCODING 177
SWIDTH 583 0
DWIDTH 7 0
BBX 5 7 1 1
BITMAP
2000
2000
F800
2000
2000
0000
F800
ENDCHAR
STARTCHAR twosuperior.uni00B2
ENCODING 178
SWIDTH 583 0
DWIDTH 7 0
BBX 4 7 1 3
BITMAP
6000
9000
9000
2000
4000
8000
F000
ENDCHAR
STARTCHAR threesuperior.uni00B3
ENCODING 179
SWIDTH 583 0
DWIDTH 7 0
BBX 4 7 1 3
BITMAP
6000
9000
1000
6000
1000
9000
6000
ENDCHAR
STARTCHAR acute.uni00B4
ENCODING 180
SWIDTH 583 0
DWIDTH 7 0
BBX 2 2 2 8
BITMAP
4000
8000
ENDCHAR
STARTCHAR mu.uni00B5
ENCODING 181
SWIDTH 583 0
DWIDTH 7 0
BBX 5 8 1 -2
BITMAP
8800
8800
8800
8800
C800
B000
8000
8000
ENDCHAR
STARTCHAR paragraph.uni00B6
ENCODING 182
SWIDTH 583 0
DWIDTH 7 0
BBX 5 8 1 0
BITMAP
7800
E800
E800
E800
6800
2800
2800
2800
ENDCHAR
STARTCHAR periodcentered.uni00B7
ENCODING 183
SWIDTH 583 0
DWIDTH 7 0
BBX 3 3 2 3
BITMAP
E000
E000
E000
ENDCHAR
STARTCHAR cedilla.uni00B8
ENCODING 184
SWIDTH 583 0
DWIDTH 7 0
BBX 3 3 2 -1
BITMAP
4000
2000
C000
ENDCHAR
STARTCHAR onesuperior.uni00B9
ENCODING 185
SWIDTH 583 0
DWIDTH 7 0
BBX 3 7 2 3
BITMAP
4000
C000
4000
4000
4000
4000
E000
ENDCHAR
STARTCHAR ordmasculine.uni00BA
ENCODING 186
SWIDTH 583 0
DWIDTH 7 0
BBX 5 7 1 3
BITMAP
7000
8800
8800
8800
7000
0000
F800
ENDCHAR
STARTCHAR guillemotright.uni00BB
ENCODING 187
SWIDTH 583 0
DWIDTH 7 0
BBX 6 5 0 2
BITMAP
9000
4800
2400
4800
9000
ENDCHAR
STARTCHAR onequarter.uni00BC
ENCODING 188
SWIDTH 583 0
DWIDTH 7 0
BBX 7 10 0 0
BITMAP
4000
C000
4400
4800
5000
2400
4C00
9400
1E00
0400
ENDCHAR
STARTCHAR onehalf.uni00BD
ENCODING 189
SWIDTH 583 0
DWIDTH 7 0
BBX 6 10 0 0
BITMAP
4000
C000
4400
4800
5000
3800
4400
8800
1000
1C00
ENDCHAR
STARTCHAR threequarters.uni00BE
ENCODING 190
SWIDTH 583 0
DWIDTH 7 0
BBX 7 10 0 0
BITMAP
C000
2000
4400
2800
D000
2400
4C00
9400
1E00
0400
ENDCHAR
STARTCHAR questiondown.uni00BF
ENCODING 191
SWIDTH 583 0
DWIDTH 7 0
BBX 5 9 1 0
BITMAP
2000
2000
0000
2000
2000
4000
8800
8800
7000
ENDCHAR
STARTCHAR Agrave.uni00C0
ENCODING 192
SWIDTH 583 0
DWIDTH 7 0
BBX 5 10 1 0
BITMAP
4000
2000
0000
2000
5000
5000
8800
F800
8800
8800
ENDCHAR
STARTCHAR Aacute.uni00C1
ENCODING 193
SWIDTH 583 0
DWIDTH 7 0
BBX 5 10 1 0
BITMAP
2000
4000
0000
2000
5000
5000
8800
F800
8800
8800
ENDCHAR
STARTCHAR Acircumflex.uni00C2
ENCODING 194
SWIDTH 583 0
DWIDTH 7 0
BBX 5 10 1 0
BITMAP
2000
5000
0000
2000
5000
5000
8800
F800
8800
8800
ENDCHAR
STARTCHAR Atilde.uni00C3
ENCODING 195
SWIDTH 583 0
DWIDTH 7 0
BBX 5 10 1 0
BITMAP
5000
A000
0000
2000
5000
5000
8800
F800
8800
8800
ENDCHAR
STARTCHAR Adieresis.uni00C4
ENCODING 196
SWIDTH 583 0
DWIDTH 7 0
BBX 5 10 1 0
BITMAP
5000
0000
2000
5000
5000
5000
8800
F800
8800
8800
ENDCHAR
STARTCHAR Aring.uni00C5
ENCODING 197
SWIDTH 583 0
DWIDTH 7 0
BBX 5 10 1 0
BITMAP
2000
5000
2000
5000
5000
5000
8800
F800
8800
8800
ENDCHAR
STARTCHAR AE.uni00C6
ENCODING 198
SWIDTH 583 0
DWIDTH 7 0
BBX 6 8 0 0
BITMAP
3C00
5000
5000
9C00
F000
9000
9000
9C00
ENDCHAR
STARTCHAR Ccedilla.uni00C7
ENCODING 199
SWIDTH 583 0
DWIDTH 7 0
BBX 5 10 1 -2
BITMAP
7000
8800
8800
8000
8000
8800
8800
7000
1000
6000
ENDCHAR
STARTCHAR Egrave.uni00C8
ENCODING 200
SWIDTH 583 0
DWIDTH 7 0
BBX 5 10 1 0
BITMAP
4000
2000
0000
F800
8000
8000
F000
8000
8000
F800
ENDCHAR
STARTCHAR Eacute.uni00C9
ENCODING 201
SWIDTH 583 0
DWIDTH 7 0
BBX 5 10 1 0
BITMAP
2000
4000
0000
F800
8000
8000
F000
8000
8000
F800
ENDCHAR
STARTCHAR Ecircumflex.uni00CA
ENCODING 202
SWIDTH 583 0
DWIDTH 7 0
BBX 5 10 1 0
BITMAP
2000
5000
0000
F800
8000
8000
F000
8000
8000
F800
ENDCHAR
STARTCHAR Edieresis.uni00CB
ENCODING 203
SWIDTH 583 0
DWIDTH 7 0
BBX 5 10 1 0
BITMAP
5000
0000
F800
8000
8000
F000
8000
8000
8000
F800
ENDCHAR
STARTCHAR Igrave.uni00CC
ENCODING 204
SWIDTH 583 0
DWIDTH 7 0
BBX 5 10 1 0
BITMAP
2000
1000
0000
F800
2000
2000
2000
2000
2000
F800
ENDCHAR
STARTCHAR Iacute.uni00CD
ENCODING 205
SWIDTH 583 0
DWIDTH 7 0
BBX 5 10 1 0
BITMAP
2000
4000
0000
F800
2000
2000
2000
2000
2000
F800
ENDCHAR
STARTCHAR Icircumflex.uni00CE
ENCODING 206
SWIDTH 583 0
DWIDTH 7 0
BBX 5 10 1 0
BITMAP
2000
5000
0000
F800
2000
2000
2000
2000
2000
F800
ENDCHAR
STARTCHAR Idieresis.uni00CF
ENCODING 207
SWIDTH 583 0
DWIDTH 7 0
BBX 5 10 1 0
BITMAP
5000
0000
F800
2000
2000
2000
2000
2000
2000
F800
ENDCHAR
STARTCHAR Eth.uni00D0
ENCODING 208
SWIDTH 583 0
DWIDTH 7 0
BBX 6 8 0 0
BITMAP
7000
4800
4400
E400
4400
4400
4800
7000
ENDCHAR
STARTCHAR Ntilde.uni00D1
ENCODING 209
SWIDTH 583 0
DWIDTH 7 0
BBX 5 10 1 0
BITMAP
5000
A000
0000
8800
C800
C800
A800
9800
9800
8800
ENDCHAR
STARTCHAR Ograve.uni00D2
ENCODING 210
SWIDTH 583 0
DWIDTH 7 0
BBX 5 10 1 0
BITMAP
4000
2000
0000
7000
8800
8800
8800
8800
8800
7000
ENDCHAR
STARTCHAR Oacute.uni00D3
ENCODING 211
SWIDTH 583 0
DWIDTH 7 0
BBX 5 10 1 0
BITMAP
2000
4000
0000
7000
8800
8800
8800
8800
8800
7000
ENDCHAR
STARTCHAR Ocircumflex.uni00D4
ENCODING 212
SWIDTH 583 0
DWIDTH 7 0
BBX 5 10 1 0
BITMAP
2000
5000
0000
7000
8800
8800
8800
8800
8800
7000
ENDCHAR
STARTCHAR Otilde.uni00D5
ENCODING 213
SWIDTH 583 0
DWIDTH 7 0
BBX 5 10 1 0
BITMAP
5000
A000
0000
7000
8800
8800
8800
8800
8800
7000
ENDCHAR
STARTCHAR Odieresis.uni00D6
ENCODING 214
SWIDTH 583 0
DWIDTH 7 0
BBX 5 10 1 0
BITMAP
5000
0000
7000
8800
8800
8800
8800
8800
8800
7000
ENDCHAR
STARTCHAR multiply.uni00D7
ENCODING 215
SWIDTH 583 0
DWIDTH 7 0
BBX 5 5 1 1
BITMAP
8800
5000
2000
5000
8800
ENDCHAR
STARTCHAR Oslash.uni00D8
ENCODING 216
SWIDTH 583 0
DWIDTH 7 0
BBX 5 8 1 0
BITMAP
2800
5000
9800
A800
A800
C800
5000
A000
ENDCHAR
STARTCHAR Ugrave.uni00D9
ENCODING 217
SWIDTH 583 0
DWIDTH 7 0
BBX 5 10 1 0
BITMAP
4000
2000
8800
8800
8800
8800
8800
8800
8800
7000
ENDCHAR
STARTCHAR Uacute.uni00DA
ENCODING 218
SWIDTH 583 0
DWIDTH 7 0
BBX 5 10 1 0
BITMAP
1000
2000
8800
8800
8800
8800
8800
8800
8800
7000
ENDCHAR
STARTCHAR Ucircumflex.uni00DB
ENCODING 219
SWIDTH 583 0
DWIDTH 7 0
BBX 5 10 1 0
BITMAP
2000
5000
0000
8800
8800
8800
8800
8800
8800
7000
ENDCHAR
STARTCHAR Udieresis.uni00DC
ENCODING 220
SWIDTH 583 0
DWIDTH 7 0
BBX 5 10 1 0
BITMAP
5000
0000
8800
8800
8800
8800
8800
8800
8800
7000
ENDCHAR
STARTCHAR Yacute.uni00DD
ENCODING 221
SWIDTH 583 0
DWIDTH 7 0
BBX 5 10 1 0
BITMAP
1000
2000
8800
8800
5000
5000
2000
2000
2000
2000
ENDCHAR
STARTCHAR Thorn.uni00DE
ENCODING 222
SWIDTH 583 0
DWIDTH 7 0
BBX 4 9 1 0
BITMAP
8000
8000
E000
9000
9000
9000
E000
8000
8000
ENDCHAR
STARTCHAR germandbls.uni00DF
ENCODING 223
SWIDTH 583 0
DWIDTH 7 0
BBX 5 8 1 0
BITMAP
6000
9000
9000
A000
9000
8800
8800
B000
ENDCHAR
STARTCHAR agrave.uni00E0
ENCODING 224
SWIDTH 583 0
DWIDTH 7 0
BBX 5 9 1 0
BITMAP
4000
2000
0000
7000
0800
7800
8800
8800
7800
ENDCHAR
STARTCHAR aacute.uni00E1
ENCODING 225
SWIDTH 583 0
DWIDTH 7 0
BBX 5 9 1 0
BITMAP
2000
4000
0000
7000
0800
7800
8800
8800
7800
ENDCHAR
STARTCHAR acircumflex.uni00E2
ENCODING 226
SWIDTH 583 0
DWIDTH 7 0
BBX 5 9 1 0
BITMAP
2000
5000
0000
7000
0800
7800
8800
8800
7800
ENDCHAR
STARTCHAR atilde.uni00E3
ENCODING 227
SWIDTH 583 0
DWIDTH 7 0
BBX 5 9 1 0
BITMAP
2800
5000
0000
7000
0800
7800
8800
8800
7800
ENDCHAR
STARTCHAR adieresis.uni00E4
ENCODING 228
SWIDTH 583 0
DWIDTH 7 0
BBX 5 8 1 0
BITMAP
5000
0000
7000
0800
7800
8800
8800
7800
ENDCHAR
STARTCHAR aring.uni00E5
ENCODING 229
SWIDTH 583 0
DWIDTH 7 0
BBX 5 9 1 0
BITMAP
2000
5000
2000
7000
0800
7800
8800
8800
7800
ENDCHAR
STARTCHAR ae.uni00E6
ENCODING 230
SWIDTH 583 0
DWIDTH 7 0
BBX 5 6 1 0
BITMAP
5000
2800
7800
A000
A800
5000
ENDCHAR
STARTCHAR ccedilla.uni00E7
ENCODING 231
SWIDTH 583 0
DWIDTH 7 0
BBX 5 8 1 -2
BITMAP
7000
8800
8000
8000
8800
7000
1000
6000
ENDCHAR
STARTCHAR egrave.uni00E8
ENCODING 232
SWIDTH 583 0
DWIDTH 7 0
BBX 5 9 1 0
BITMAP
4000
2000
0000
7000
8800
F800
8000
8800
7000
ENDCHAR
STARTCHAR eacute.uni00E9
ENCODING 233
SWIDTH 583 0
DWIDTH 7 0
BBX 5 9 1 0
BITMAP
2000
4000
0000
7000
8800
F800
8000
8800
7000
ENDCHAR
STARTCHAR ecircumflex.uni00EA
ENCODING 234
SWIDTH 583 0
DWIDTH 7 0
BBX 5 9 1 0
BITMAP
2000
5000
0000
7000
8800
F800
8000
8800
7000
ENDCHAR
STARTCHAR edieresis.uni00EB
ENCODING 235
SWIDTH 583 0
DWIDTH 7 0
BBX 5 8 1 0
BITMAP
5000
0000
7000
8800
F800
8000
8800
7000
ENDCHAR
STARTCHAR igrave.uni00EC
ENCODING 236
SWIDTH 583 0
DWIDTH 7 0
BBX 3 9 2 0
BITMAP
8000
4000
0000
E000
2000
2000
2000
2000
2000
ENDCHAR
STARTCHAR iacute.uni00ED
ENCODING 237
SWIDTH 583 0
DWIDTH 7 0
BBX 3 9 2 0
BITMAP
4000
8000
0000
E000
2000
2000
2000
2000
2000
ENDCHAR
STARTCHAR icircumflex.uni00EE
ENCODING 238
SWIDTH 583 0
DWIDTH 7 0
BBX 3 9 2 0
BITMAP
4000
A000
0000
E000
2000
2000
2000
2000
2000
ENDCHAR
STARTCHAR idieresis.uni00EF
ENCODING 239
SWIDTH 583 0
DWIDTH 7 0
BBX 3 8 2 0
BITMAP
A000
0000
E000
2000
2000
2000
2000
2000
ENDCHAR
STARTCHAR eth.uni00F0
ENCODING 240
SWIDTH 583 0
DWIDTH 7 0
BBX 5 9 1 0
BITMAP
5000
2000
5000
1000
6800
9800
8800
9800
6800
ENDCHAR
STARTCHAR ntilde.uni00F1
ENCODING 241
SWIDTH 583 0
DWIDTH 7 0
BBX 5 9 1 0
BITMAP
5000
A000
0000
B000
C800
8800
8800
8800
8800
ENDCHAR
STARTCHAR ograve.uni00F2
ENCODING 242
SWIDTH 583 0
DWIDTH 7 0
BBX 5 9 1 0
BITMAP
4000
2000
0000
7000
8800
8800
8800
8800
7000
ENDCHAR
STARTCHAR oacute.uni00F3
ENCODING 243
SWIDTH 583 0
DWIDTH 7 0
BBX 5 9 1 0
BITMAP
2000
4000
0000
7000
8800
8800
8800
8800
7000
ENDCHAR
STARTCHAR ocircumflex.uni00F4
ENCODING 244
SWIDTH 583 0
DWIDTH 7 0
BBX 5 9 1 0
BITMAP
2000
5000
0000
7000
8800
8800
8800
8800
7000
ENDCHAR
STARTCHAR otilde.uni00F5
ENCODING 245
SWIDTH 583 0
DWIDTH 7 0
BBX 5 9 1 0
BITMAP
5000
A000
0000
7000
8800
8800
8800
8800
7000
ENDCHAR
STARTCHAR odieresis.uni00F6
ENCODING 246
SWIDTH 583 0
DWIDTH 7 0
BBX 5 8 1 0
BITMAP
5000
0000
7000
8800
8800
8800
8800
7000
ENDCHAR
STARTCHAR divide.uni00F7
ENCODING 247
SWIDTH 583 0
DWIDTH 7 0
BBX 5 5 1 2
BITMAP
2000
0000
F800
0000
2000
ENDCHAR
STARTCHAR oslash.uni00F8
ENCODING 248
SWIDTH 583 0
DWIDTH 7 0
BBX 5 6 1 0
BITMAP
6800
9000
A800
A800
4800
B000
ENDCHAR
STARTCHAR ugrave.uni00F9
ENCODING 249
SWIDTH 583 0
DWIDTH 7 0
BBX 5 9 1 0
BITMAP
4000
2000
0000
8800
8800
8800
8800
9800
6800
ENDCHAR
STARTCHAR uacute.uni00FA
ENCODING 250
SWIDTH 583 0
DWIDTH 7 0
BBX 5 9 1 0
BITMAP
2000
4000
0000
8800
8800
8800
8800
9800
6800
ENDCHAR
STARTCHAR ucircumflex.uni00FB
ENCODING 251
SWIDTH 583 0
DWIDTH 7 0
BBX 5 9 1 0
BITMAP
2000
5000
0000
8800
8800
8800
8800
9800
6800
ENDCHAR
STARTCHAR udieresis.uni00FC
ENCODING 252
SWIDTH 583 0
DWIDTH 7 0
BBX 5 8 1 0
BITMAP
5000
0000
8800
8800
8800
8800
9800
6800
ENDCHAR
STARTCHAR yacute.uni00FD
ENCODING 253
SWIDTH 583 0
DWIDTH 7 0
BBX 5 11 1 -2
BITMAP
2000
4000
0000
8800
8800
8800
5000
5000
2000
2000
C000
ENDCHAR
STARTCHAR thorn.uni00FE
ENCODING 254
SWIDTH 583 0
DWIDTH 7 0
BBX 5 9 1 0
BITMAP
8000
8000
F000
8800
8800
8800
F000
8000
8000
ENDCHAR
STARTCHAR ydieresis.uni00FF
ENCODING 255
SWIDTH 583 0
DWIDTH 7 0
BBX 5 10 1 -2
BITMAP
5000
0000
8800
8800
8800
5000
5000
2000
2000
C000
ENDCHAR
ENDFONT
